<?xml version="1.0" encoding="UTF-8" standalone="no"?>
<svg xmlns="http://www.w3.org/2000/svg" height="65.375" width="65.375" viewBox="0 0 65.375 65.375" version="1.1">
	<path d="M 62.913,9.1899997 H 54.257 V 12.776 H 48.944 V 9.1899997 H 16.421 V 12.776 H 11.108 V 9.1899997 H 2.447 v 0 V 60.168 c 0,2.869 2.333,5.207 5.207,5.207 h 50.067 c 2.869,0 5.207,-2.338 5.207,-5.207 z M 21.977,63.495 H 7.654 c -1.833,0 -3.326,-1.492 -3.326,-3.326 V 49.646 h 17.649 z m 0,-15.732 H 4.328 V 33.938 h 17.649 z m 0,-15.708 H 4.328 c 0,0 0.052,-13.723 0.063,-13.83 h 17.586 z m 19.539,31.44 H 23.859 V 49.646 h 17.657 z m 0,-15.732 H 23.859 V 33.938 h 17.657 z m 0,-15.708 H 23.859 v -13.83 h 17.657 z m 19.531,28.113 c 0,1.832 -1.492,3.326 -3.326,3.326 H 43.397 V 49.646 h 17.65 z m 0,-12.405 H 43.397 V 33.938 h 17.65 z M 43.397,32.055 v -13.83 h 17.588 c 0.012,0.107 0.062,13.83 0.062,13.83 z" />
	<rect height="11.229" width="2.175" y="0" x="12.676999" />
	<rect height="11.229" width="2.1760001" y="0" x="50.537998" />
</svg>
