<?xml version="1.0" encoding="UTF-8" standalone="no"?>
<svg xmlns="http://www.w3.org/2000/svg" height="49.599998" width="49.599998" viewBox="0 0 49.599998 49.599998" version="1.1">
	<path d="m 11,49.6 h 27.6 c 6.1,0 11,-4.9 11,-11 v 0 -7.8 c 0,-0.6 -0.4,-1 -1,-1 -0.6,0 -1,0.4 -1,1 v 7.8 c 0,5 -4,9 -9,9 v 0 H 11 c -5,0 -9,-4 -9,-9 V 11 C 2,6 6,2 11,2 h 7.8 c 0.6,0 1,-0.4 1,-1 0,-0.6 -0.4,-1 -1,-1 H 11 C 4.9,0 0,4.9 0,11 v 27.6 c 0,6.1 4.9,11 11,11 z" />
	<path d="M 38.7,2.3 18.3,22.7 C 18.2,22.8 18.1,23 18,23.1 l -2.8,10 c -0.1,0.5 0.2,1.1 0.7,1.2 0.1,0 0.2,0 0.3,0 0.1,0 0.2,0 0.3,0 l 10,-2.8 c 0.2,0 0.3,-0.1 0.4,-0.3 L 47.3,10.8 c 2.5,-2.3 2.6,-6.2 0.3,-8.7 -2.3,-2.5 -6.2,-2.6 -8.7,-0.3 0,0.3 -0.1,0.4 -0.2,0.5 z M 17.6,32 l 1.9,-6.8 4.9,4.9 z M 47.1,6.6 c 0,1.1 -0.4,2.1 -1.2,2.9 L 26.3,29.1 20.5,23.3 40.2,3.7 c 1.6,-1.6 4.2,-1.6 5.8,0.1 0.7,0.7 1.1,1.7 1.1,2.8 z" />
</svg>
