<?xml version="1.0" encoding="UTF-8" standalone="no"?>
<svg xmlns="http://www.w3.org/2000/svg" height="48" width="48" viewBox="0 0 48 48" version="1.1">
	<path d="m 22.9035,31.596 c -4.237,0 -7.684,-3.447 -7.684,-7.684 0,-4.237 3.447,-7.686 7.684,-7.686 4.238,0 7.685,3.448 7.685,7.686 0,4.236 -3.447,7.684 -7.685,7.684 z m 0,-13.323 c -3.108,0 -5.637,2.529 -5.637,5.639 0,3.108 2.528,5.637 5.637,5.637 3.109,0 5.638,-2.528 5.638,-5.637 0,-3.109 -2.529,-5.639 -5.638,-5.639 z" />
	<circle cx="10.6345" cy="13.97" r="9.4530001" />
	<circle cx="9.7434998" cy="32.086998" r="9.4530001" />
	<circle cx="26.599501" cy="38.547001" r="9.4530001" id="circle8" />
	<path d="m 47.7095,24.577 c 0,5.223 -4.232,9.455 -9.451,9.455 -5.223,0 -9.453,-4.232 -9.453,-9.455 0,-5.219 4.23,-9.451 9.453,-9.451 5.219,0 9.451,4.232 9.451,9.451 z" />
	<circle cx="28.2785" cy="9.4530001" r="9.4530001" />
	<ellipse cx="14.5215" cy="21.321999" rx="2.7309999" ry="4.7259998" />
	<ellipse cx="20.0865" cy="14.284" rx="5.566" ry="3.256" />
	<circle cx="30.5375" cy="18.434" r="2.8889999" />
	<ellipse cx="30.904499" cy="29.566" rx="2.73" ry="3.938" />
	<circle cx="18.6175" cy="31.613998" r="2.6259999" />
</svg>
