<?xml version="1.0" encoding="UTF-8" standalone="no"?>
<svg xmlns="http://www.w3.org/2000/svg" height="161.549" width="163.67938" viewBox="0 0 163.67938 161.549" version="1.1">
	<path
		style="clip-rule:evenodd;fill-rule:evenodd"
		d="M 158.05001,69.578 C 172.89301,37.52 157.24901,0 124.44701,0 91.645006,0 81.693006,21.592 81.693006,21.592 c 0,0 -10.381,-21.592 -43.239,-21.592 C 5.6530063,0 -8.1599937,37.52 4.8520063,69.578 18.370006,102.988 56.290006,136.061 80.922006,161.549 106.02901,135.265 142.73701,103.06 158.05001,69.578 Z m -49.666,-44.517 c 3.143,-7.827 10.8,-13.356 19.748,-13.356 11.747,0 21.273,9.527 21.273,21.274 0,6.212 -2.666,11.803 -6.913,15.693 0.983,-2.448 1.527,-5.122 1.527,-7.921 0,-11.748 -9.527,-21.274 -21.274,-21.274 -5.535,0 -10.576,2.117 -14.361,5.584 z" />
</svg>
